<svg id="visual" viewBox="0 0 1920 1080" width="1920" height="1080" xmlns="http://www.w3.org/2000/svg" xmlns:xlink="http://www.w3.org/1999/xlink" version="1.1"><rect x="0" y="0" width="1920" height="1080" fill="#0e0e0f"></rect><path d="M1315 1080L999 1080L999 926L987 926L987 771L1144 771L1144 617L1324 617L1324 463L988 463L988 309L1241 309L1241 154L1040 154L1040 0L1920 0L1920 154L1920 154L1920 309L1920 309L1920 463L1920 463L1920 617L1920 617L1920 771L1920 771L1920 926L1920 926L1920 1080L1920 1080Z" fill="#1e1f21"></path><path d="M1514 1080L1360 1080L1360 926L1474 926L1474 771L1431 771L1431 617L1346 617L1346 463L1499 463L1499 309L1371 309L1371 154L1456 154L1456 0L1920 0L1920 154L1920 154L1920 309L1920 309L1920 463L1920 463L1920 617L1920 617L1920 771L1920 771L1920 926L1920 926L1920 1080L1920 1080Z" fill="#232527"></path><path d="M1648 1080L1600 1080L1600 926L1629 926L1629 771L1591 771L1591 617L1552 617L1552 463L1579 463L1579 309L1541 309L1541 154L1598 154L1598 0L1920 0L1920 154L1920 154L1920 309L1920 309L1920 463L1920 463L1920 617L1920 617L1920 771L1920 771L1920 926L1920 926L1920 1080L1920 1080Z" fill="#292b2c"></path></svg>