<svg id="visual" viewBox="0 0 1920 1080" width="1920" height="1080" xmlns="http://www.w3.org/2000/svg" xmlns:xlink="http://www.w3.org/1999/xlink" version="1.1"><rect x="0" y="0" width="1920" height="1080" fill="#0e0e0f"></rect><path d="M607 0L923 0L923 154L935 154L935 309L778 309L778 463L598 463L598 617L934 617L934 771L681 771L681 926L882 926L882 1080L0 1080L0 926L0 926L0 771L0 771L0 617L0 617L0 463L0 463L0 309L0 309L0 154L0 154L0 0L0 0Z" fill="#1e1f21"></path><path d="M408 0L562 0L562 154L448 154L448 309L491 309L491 463L576 463L576 617L423 617L423 771L551 771L551 926L466 926L466 1080L0 1080L0 926L0 926L0 771L0 771L0 617L0 617L0 463L0 463L0 309L0 309L0 154L0 154L0 0L0 0Z" fill="#232527"></path><path d="M274 0L322 0L322 154L293 154L293 309L331 309L331 463L370 463L370 617L343 617L343 771L381 771L381 926L324 926L324 1080L0 1080L0 926L0 926L0 771L0 771L0 617L0 617L0 463L0 463L0 309L0 309L0 154L0 154L0 0L0 0Z" fill="#292b2c"></path></svg>